# xmcd
#
# Track frame offsets:
#	150
#	23002
#	41355
#	60267
#	76855
#	99235
#	116810
#	145362
#	159632
#	177480
#	194357
#	214655
#	214957
#	215257
#	215557
#	215857
#	216157
#	216457
#	216757
#	217057
#	217357
#	217657
#	217965
#
# Disc length: 3098 seconds
# Revision: 0
# Processed by: cddbd v1.5.2PL0 Copyright (c) Steve Scherf et al.
# Submitted via: dBpowerAMP V12.0
#
DISCID=7e0c1817
DTITLE=Marc Broussard - Carencro
DYEAR=2004
DGENRE=Blues-Rock
TTITLE0=Home
TTITLE1=Rocksteady
TTITLE2=The Beauty Of Who You Are
TTITLE3=Save Me
TTITLE4=Come Around
TTITLE5=Where You Are
TTITLE6=Lonely Night In Georgia
TTITLE7=Saturday
TTITLE8=The Wanderer
TTITLE9=Hope For Me Yet
TTITLE10=Let Me Leave
TTITLE11=Blank Track
TTITLE12=Blank Track
TTITLE13=Blank Track
TTITLE14=Blank Track
TTITLE15=Blank Track
TTITLE16=Blank Track
TTITLE17=Blank Track
TTITLE18=Blank Track
TTITLE19=Blank Track
TTITLE20=Blank Track
TTITLE21=Blank Track
TTITLE22=Gavin's Song
EXTD=
EXTT0=
EXTT1=
EXTT2=
EXTT3=
EXTT4=
EXTT5=
EXTT6=
EXTT7=
EXTT8=
EXTT9=
EXTT10=
EXTT11=
EXTT12=
EXTT13=
EXTT14=
EXTT15=
EXTT16=
EXTT17=
EXTT18=
EXTT19=
EXTT20=
EXTT21=
EXTT22=
PLAYORDER=
